<?xml version="1.0" encoding="UTF-8"?>
<svg version="1.1" xmlns="http://www.w3.org/2000/svg" width="48" height="48">
<path d="M0 0 C0.99 0.99 1.98 1.98 3 3 C1.9171875 4.55460938 1.9171875 4.55460938 0.8125 6.140625 C-0.1254857 7.51008412 -1.06295909 8.87989424 -2 10.25 C-2.47695313 10.93191406 -2.95390625 11.61382812 -3.4453125 12.31640625 C-3.89648438 12.98027344 -4.34765625 13.64414062 -4.8125 14.328125 C-5.44091797 15.23933105 -5.44091797 15.23933105 -6.08203125 16.16894531 C-7.29877793 18.25458754 -7.29877793 18.25458754 -7 22 C-6.10881596 23.8831935 -6.10881596 23.8831935 -4.8125 25.671875 C-4.36132812 26.33574219 -3.91015625 26.99960937 -3.4453125 27.68359375 C-2.96835937 28.36550781 -2.49140625 29.04742187 -2 29.75 C-1.52304687 30.44738281 -1.04609375 31.14476563 -0.5546875 31.86328125 C0.62196602 33.5811954 1.80990801 35.29136792 3 37 C2.01 37.99 1.02 38.98 0 40 C-4 35 -8 30 -12 25 C-12.61488281 25.91523438 -13.22976562 26.83046875 -13.86328125 27.7734375 C-14.67939529 28.974157 -15.4958177 30.17466694 -16.3125 31.375 C-16.91868164 32.27992187 -16.91868164 32.27992187 -17.53710938 33.203125 C-19.52809901 36.11676837 -21.02946868 38.01964579 -24 40 C-24.66 39.01 -25.32 38.02 -26 37 C-25.278125 35.96359375 -24.55625 34.9271875 -23.8125 33.859375 C-22.8745143 32.48991588 -21.93704091 31.12010576 -21 29.75 C-20.52304687 29.06808594 -20.04609375 28.38617188 -19.5546875 27.68359375 C-18.87792969 26.68779297 -18.87792969 26.68779297 -18.1875 25.671875 C-17.76855469 25.0644043 -17.34960938 24.45693359 -16.91796875 23.83105469 C-15.70122207 21.74541246 -15.70122207 21.74541246 -16 18 C-17.4390479 15.73863902 -18.89046059 13.63155219 -20.5 11.5 C-25 5.54054054 -25 5.54054054 -25 1 C-23.296875 1.08984375 -23.296875 1.08984375 -21 2 C-19.26326118 4.16517274 -17.74910911 6.24547306 -16.25 8.5625 C-15.83878906 9.17802734 -15.42757813 9.79355469 -15.00390625 10.42773438 C-13.99236489 11.94504641 -12.99480211 13.47166086 -12 15 C-11.42765625 14.28457031 -10.8553125 13.56914062 -10.265625 12.83203125 C-6.84375 8.5546875 -3.421875 4.27734375 0 0 Z " fill="#000000" transform="translate(35,4)"/>
</svg>
