<svg xmlns="http://www.w3.org/2000/svg" width="500" height="500" viewBox="0 0 500 500">
<g>
<path d="M 248.50,466.33 L 244.64,465.85 L 237.29,464.77 L 233.66,464.20 L 226.73,462.92 L 223.30,462.26 L 216.70,460.76 L 213.43,459.98 L 207.08,458.25 L 203.93,457.34 L 197.75,455.34 L 194.67,454.31 L 188.58,452.02 L 185.54,450.83 L 179.46,448.23 L 170.27,443.96 L 166.84,442.28 L 160.17,438.70 L 156.86,436.88 L 150.43,432.99 L 147.25,431.02 L 141.06,426.84 L 138.00,424.71 L 132.07,420.25 L 129.13,417.99 L 123.46,413.24 L 120.66,410.84 L 115.26,405.83 L 112.59,403.29 L 107.46,398.02 L 104.93,395.35 L 100.08,389.82 L 97.69,387.03 L 93.13,381.25 L 90.89,378.34 L 86.63,372.33 L 84.54,369.30 L 80.58,363.06 L 78.64,359.91 L 74.99,353.46 L 73.20,350.20 L 69.87,343.53 L 68.24,340.17 L 65.23,333.30 L 63.77,329.84 L 61.09,322.77 L 57.46,311.96 L 56.55,309.02 L 54.95,303.33 L 54.18,300.51 L 52.85,294.99 L 51.58,289.48 L 49.79,278.48 L 49.40,275.70 L 48.78,269.99 L 48.50,267.10 L 48.09,261.10 L 47.91,258.06 L 47.69,251.66 L 47.56,241.50 L 47.56,236.84 L 47.86,227.90 L 48.07,223.48 L 48.80,214.96 L 49.21,210.74 L 50.39,202.55 L 51.03,198.49 L 52.68,190.53 L 53.56,186.57 L 55.69,178.75 L 56.82,174.85 L 59.46,167.08 L 60.84,163.20 L 64.01,155.38 L 69.39,143.50 L 71.60,138.92 L 76.35,130.15 L 78.78,125.82 L 84.00,117.53 L 86.67,113.44 L 92.37,105.62 L 95.28,101.76 L 101.49,94.38 L 104.66,90.74 L 111.39,83.78 L 114.82,80.35 L 122.08,73.79 L 125.79,70.55 L 133.61,64.37 L 146.00,55.50 L 148.51,53.82 L 154.09,50.47 L 156.95,48.80 L 163.10,45.55 L 166.24,43.94 L 172.83,40.84 L 176.16,39.31 L 183.02,36.43 L 186.48,35.02 L 193.47,32.41 L 196.97,31.15 L 203.93,28.88 L 207.40,27.80 L 214.18,25.94 L 224.00,23.67 L 226.64,23.14 L 231.41,22.24 L 233.73,21.82 L 238.02,21.12 L 242.22,20.46 L 250.06,19.67 L 252.04,19.51 L 256.12,19.29 L 258.20,19.20 L 262.64,19.12 L 264.92,19.09 L 269.92,19.11 L 278.29,19.26 L 280.58,19.31 L 284.62,19.43 L 286.57,19.49 L 290.03,19.62 L 291.71,19.70 L 294.72,19.87 L 296.19,19.96 L 298.89,20.18 L 301.53,20.41 L 306.44,21.05 L 314.28,22.40 L 320.18,23.52 L 331.76,26.49 L 337.50,28.09 L 348.69,31.96 L 354.22,34.01 L 364.93,38.75 L 370.21,41.22 L 380.35,46.76 L 385.34,49.63 L 394.82,55.93 L 399.47,59.17 L 408.21,66.19 L 410.35,67.98 L 414.46,71.69 L 416.49,73.57 L 420.39,77.45 L 422.32,79.40 L 425.99,83.43 L 431.23,89.64 L 432.36,91.05 L 434.21,93.40 L 435.06,94.51 L 436.38,96.35 L 436.97,97.22 L 437.77,98.65 L 438.12,99.33 L 438.43,100.46 L 438.53,101.00 L 438.37,101.94 L 438.24,102.40 L 437.63,103.26 L 437.27,103.69 L 436.23,104.57 L 434.20,106.04 L 433.69,106.39 L 432.26,107.37 L 431.49,107.90 L 429.71,109.14 L 424.10,113.04 L 417.70,117.50 L 346.60,118.00 L 275.50,118.50 L 274.76,126.50 L 274.68,127.26 L 274.54,129.52 L 274.47,130.75 L 274.33,133.86 L 274.26,135.50 L 274.12,139.32 L 274.05,141.30 L 273.91,145.69 L 273.84,147.95 L 273.72,152.78 L 273.65,155.24 L 273.54,160.37 L 273.42,165.55 L 273.23,176.24 L 273.14,181.54 L 273.01,191.66 L 272.99,194.10 L 272.95,198.69 L 272.93,200.92 L 272.92,204.99 L 272.92,206.94 L 272.93,210.36 L 272.94,211.97 L 272.98,214.58 L 273.00,215.78 L 273.07,217.47 L 273.09,217.83 L 273.14,218.34 L 273.21,218.80 L 273.99,221.11 L 332.25,220.94 L 390.50,220.78 L 399.50,223.41 L 401.35,223.95 L 404.75,225.05 L 406.40,225.61 L 409.46,226.78 L 410.95,227.37 L 413.73,228.64 L 415.10,229.29 L 417.67,230.70 L 420.20,232.14 L 424.93,235.62 L 426.10,236.55 L 428.45,238.60 L 432.04,242.00 L 434.44,244.40 L 438.49,249.16 L 440.41,251.57 L 443.65,256.66 L 445.20,259.28 L 447.86,265.08 L 448.50,266.59 L 449.72,269.81 L 451.46,275.00 L 452.59,278.61 L 454.27,285.50 L 455.01,288.96 L 455.98,296.18 L 456.18,298.04 L 456.47,301.96 L 456.59,303.97 L 456.74,308.26 L 456.79,310.46 L 456.80,315.22 L 456.67,323.00 L 456.61,325.19 L 456.44,329.34 L 456.34,331.38 L 456.08,335.26 L 455.80,339.08 L 454.94,346.02 L 454.45,349.40 L 453.11,355.63 L 452.37,358.67 L 450.48,364.40 L 449.45,367.22 L 446.92,372.68 L 445.57,375.39 L 442.32,380.80 L 440.59,383.52 L 436.54,389.11 L 429.48,397.92 L 428.18,399.47 L 425.80,402.36 L 424.67,403.75 L 422.78,406.14 L 422.35,406.69 L 421.62,407.66 L 421.28,408.12 L 420.75,408.86 L 420.51,409.21 L 420.19,409.70 L 420.00,410.13 L 420.00,410.26 L 419.74,410.61 L 419.58,410.80 L 419.04,411.22 L 416.73,412.47 L 415.83,412.84 L 413.84,414.08 L 411.48,416.03 L 411.05,416.51 L 409.61,417.82 L 408.81,418.52 L 406.75,420.20 L 405.65,421.08 L 403.12,423.02 L 401.80,424.01 L 398.94,426.10 L 396.03,428.21 L 389.87,432.42 L 388.35,433.43 L 385.43,435.32 L 381.34,437.84 L 378.31,439.64 L 372.10,442.99 L 368.96,444.63 L 362.55,447.67 L 359.32,449.15 L 352.72,451.87 L 349.39,453.18 L 342.61,455.57 L 339.19,456.73 L 332.23,458.79 L 328.73,459.78 L 321.60,461.52 L 318.02,462.34 L 310.73,463.74 L 299.63,465.46 L 298.96,465.55 L 297.39,465.71 L 296.57,465.79 L 294.73,465.94 L 292.82,466.09 L 288.36,466.34 L 286.05,466.45 L 281.05,466.63 L 278.51,466.71 L 273.31,466.82 L 270.72,466.86 L 265.67,466.89 L 263.20,466.90 L 258.64,466.84 L 256.46,466.80 L 252.74,466.66 L 251.88,466.61 L 250.38,466.51 L 249.67,466.46 M 302.81,436.62 L 305.82,436.06 L 312.12,434.66 L 315.28,433.92 L 321.53,432.26 L 324.60,431.41 L 330.33,429.62 L 331.70,429.17 L 334.28,428.27 L 337.82,426.94 L 340.16,426.00 L 344.91,423.95 L 347.24,422.91 L 351.45,420.92 L 352.43,420.44 L 354.18,419.56 L 355.00,419.13 L 356.37,418.38 L 356.99,418.03 L 357.88,417.45 L 358.60,416.84 L 358.81,416.50 L 358.74,415.92 L 358.60,415.64 L 357.69,415.17 L 357.40,415.06 L 356.64,414.86 L 356.22,414.76 L 355.17,414.59 L 354.61,414.50 L 353.26,414.34 L 352.55,414.27 L 350.87,414.13 L 349.99,414.07 L 347.97,413.95 L 346.91,413.89 L 344.51,413.79 L 343.26,413.74 L 340.45,413.65 L 339.00,413.61 L 335.77,413.54 L 334.10,413.50 L 330.42,413.44 L 328.52,413.41 L 324.37,413.35 L 322.23,413.33 L 317.57,413.28 L 310.00,413.22 L 266.50,412.88 L 245.54,421.81 L 242.66,423.03 L 237.38,425.36 L 236.12,425.92 L 233.79,426.98 L 232.66,427.50 L 230.63,428.44 L 229.67,428.90 L 228.02,429.70 L 227.24,430.08 L 226.01,430.72 L 225.46,431.01 L 224.72,431.45 L 224.21,431.86 L 224.14,432.08 L 224.25,432.50 L 224.35,432.71 L 224.83,433.11 L 225.12,433.32 L 225.99,433.72 L 226.48,433.92 L 227.78,434.33 L 228.48,434.53 L 230.23,434.95 L 231.16,435.17 L 233.39,435.61 L 234.56,435.83 L 237.30,436.30 L 242.00,437.04 L 243.91,437.33 L 248.44,437.79 L 250.81,438.00 L 256.05,438.30 L 258.73,438.43 L 264.40,438.58 L 267.26,438.64 L 273.08,438.64 L 275.98,438.62 L 281.68,438.46 L 284.48,438.37 L 289.77,438.07 L 292.34,437.90 L 296.96,437.45 L 298.06,437.33 L 300.08,437.06 L 301.06,436.92 M 213.51,428.98 L 213.53,428.95 L 213.57,428.57 L 213.58,428.32 L 213.63,427.51 L 213.65,427.05 L 213.70,425.83 L 213.73,425.17 L 213.79,423.58 L 213.82,422.74 L 213.88,420.79 L 213.92,419.78 L 213.99,417.50 L 214.02,416.33 L 214.10,413.75 L 214.14,412.43 L 214.22,409.58 L 214.30,406.66 L 214.48,400.11 L 214.57,396.73 L 214.76,389.40 L 214.85,385.66 L 215.04,377.75 L 215.14,373.75 L 215.33,365.47 L 215.53,357.13 L 215.90,340.21 L 215.99,336.03 L 216.16,327.84 L 216.25,323.80 L 216.40,316.05 L 216.48,312.25 L 216.61,305.15 L 216.67,301.69 L 216.78,295.43 L 216.80,293.92 L 216.84,291.10 L 216.87,289.73 L 216.90,287.19 L 216.92,285.96 L 216.94,283.73 L 216.97,280.75 L 216.98,280.17 L 216.90,279.20 L 216.84,278.76 L 216.64,278.07 L 216.52,277.77 L 216.17,277.36 L 215.98,277.19 L 215.48,277.05 L 215.22,277.02 L 214.55,277.15 L 214.20,277.25 L 213.37,277.66 L 212.93,277.89 L 211.90,278.57 L 210.14,279.88 L 209.64,280.28 L 208.20,281.28 L 207.43,281.80 L 205.61,282.95 L 199.83,286.29 L 197.35,287.61 L 192.44,289.51 L 190.00,290.33 L 185.21,291.26 L 182.84,291.60 L 178.20,291.56 L 175.90,291.42 L 171.43,290.42 L 169.22,289.80 L 164.97,287.85 L 162.87,286.76 L 158.84,283.88 L 156.87,282.32 L 153.11,278.50 L 147.82,271.73 L 146.77,270.19 L 144.83,266.98 L 143.88,265.34 L 142.11,261.85 L 141.24,260.05 L 139.59,256.13 L 138.78,254.11 L 137.20,249.61 L 136.41,247.28 L 134.86,242.08 L 134.08,239.37 L 132.51,233.32 L 131.71,230.17 L 130.07,223.11 L 129.65,221.28 L 128.79,217.40 L 127.46,211.25 L 126.98,208.96 L 126.06,204.68 L 125.61,202.59 L 124.75,198.66 L 124.33,196.74 L 123.53,193.14 L 123.13,191.38 L 122.37,188.09 L 122.00,186.48 L 121.28,183.47 L 120.92,181.99 L 120.23,179.24 L 119.55,176.55 L 118.26,171.84 L 117.63,169.58 L 116.38,165.59 L 115.76,163.67 L 114.50,160.21 L 113.87,158.54 L 112.55,155.43 L 110.44,150.94 L 109.96,149.98 L 109.09,148.31 L 108.67,147.52 L 107.90,146.21 L 107.54,145.59 L 106.87,144.61 L 106.55,144.16 L 105.96,143.49 L 105.68,143.19 L 105.16,142.82 L 104.91,142.67 L 104.44,142.59 L 103.15,143.32 L 102.78,143.76 L 101.84,145.27 L 101.34,146.11 L 100.17,148.31 L 99.57,149.48 L 98.25,152.21 L 97.58,153.63 L 96.18,156.74 L 94.77,159.92 L 92.00,166.75 L 91.33,168.44 L 90.10,171.76 L 88.46,176.46 L 87.43,179.59 L 85.62,185.64 L 84.75,188.63 L 83.27,194.48 L 82.57,197.38 L 81.39,203.12 L 80.84,205.98 L 79.96,211.71 L 79.56,214.58 L 78.96,220.39 L 78.69,223.32 L 78.37,229.32 L 78.23,232.36 L 78.16,238.64 L 78.32,248.50 L 78.46,252.66 L 78.95,260.54 L 79.22,264.42 L 80.00,271.79 L 80.43,275.43 L 81.52,282.41 L 82.11,285.86 L 83.55,292.55 L 84.31,295.87 L 86.12,302.37 L 87.07,305.61 L 89.27,312.03 L 90.42,315.24 L 93.03,321.69 L 97.44,331.50 L 98.77,334.28 L 101.45,339.53 L 102.80,342.10 L 105.56,346.99 L 106.95,349.39 L 109.82,353.99 L 111.28,356.26 L 114.33,360.63 L 115.88,362.79 L 119.14,367.00 L 120.80,369.09 L 124.33,373.20 L 126.13,375.26 L 129.97,379.34 L 136.13,385.52 L 138.59,387.89 L 143.41,392.28 L 145.81,394.42 L 150.57,398.38 L 152.96,400.31 L 157.75,403.89 L 160.15,405.63 L 165.06,408.89 L 167.54,410.48 L 172.65,413.47 L 175.24,414.94 L 180.65,417.72 L 183.40,419.09 L 189.19,421.72 L 198.40,425.56 L 199.85,426.13 L 202.33,427.09 L 203.50,427.54 L 205.49,428.26 L 206.43,428.59 L 207.99,429.10 L 208.72,429.32 L 209.90,429.62 L 210.45,429.75 L 211.32,429.85 L 211.72,429.88 L 212.33,429.81 L 212.90,429.69 M 291.98,376.03 L 292.29,375.84 L 292.61,375.16 L 292.71,374.74 L 292.53,373.33 L 292.45,372.91 L 292.18,371.86 L 292.03,371.29 L 291.61,369.91 L 291.39,369.18 L 290.81,367.42 L 289.76,364.30 L 288.56,360.81 L 286.67,354.30 L 285.81,351.08 L 284.50,344.69 L 283.91,341.47 L 283.09,334.67 L 282.91,332.92 L 282.63,329.24 L 282.30,323.41 L 282.18,320.85 L 282.12,315.87 L 282.12,313.40 L 282.29,308.57 L 282.51,303.77 L 283.65,294.55 L 284.34,290.00 L 286.41,281.18 L 290.59,268.27 L 291.08,267.00 L 291.92,264.60 L 292.31,263.45 L 292.91,261.45 L 293.18,260.52 L 293.48,259.14 L 293.51,258.02 L 293.42,257.87 L 292.50,257.61 L 291.94,257.49 L 290.21,257.29 L 289.26,257.20 L 286.92,257.08 L 282.92,257.00 L 281.74,257.00 L 279.78,257.01 L 278.86,257.02 L 277.36,257.05 L 276.67,257.07 L 275.57,257.15 L 275.06,257.20 L 274.28,257.33 L 273.57,257.48 L 272.81,258.00 L 272.12,259.25 L 272.09,259.33 L 272.03,259.77 L 272.00,260.05 L 271.93,260.86 L 271.90,261.32 L 271.82,262.49 L 271.79,263.11 L 271.71,264.61 L 271.67,265.40 L 271.58,267.22 L 271.54,268.16 L 271.46,270.26 L 271.37,272.43 L 271.19,277.56 L 271.10,280.24 L 270.91,286.26 L 270.82,289.37 L 270.63,296.14 L 270.54,299.59 L 270.36,306.93 L 270.10,318.41 L 270.04,321.32 L 269.93,326.73 L 269.88,329.36 L 269.78,334.23 L 269.73,336.60 L 269.66,340.97 L 269.62,343.09 L 269.55,346.98 L 269.52,348.87 L 269.48,352.30 L 269.45,353.96 L 269.42,356.96 L 269.41,358.41 L 269.39,361.01 L 269.39,362.26 L 269.39,364.49 L 269.39,365.55 L 269.40,367.42 L 269.41,368.32 L 269.45,369.86 L 269.46,370.59 L 269.51,371.83 L 269.54,372.42 L 269.60,373.39 L 269.67,374.29 L 269.85,375.38 L 270.20,376.15 L 270.43,376.29 L 271.58,376.51 L 272.25,376.62 L 274.10,376.77 L 275.09,376.84 L 277.40,376.91 L 278.58,376.94 L 281.08,376.95 L 282.33,376.94 L 284.76,376.88 L 285.94,376.83 L 288.06,376.70 L 289.05,376.62 L 290.59,376.42 L 291.27,376.31 M 378.39,371.58 L 380.08,371.07 L 383.06,369.70 L 384.48,368.95 L 386.97,367.03 L 388.17,366.00 L 390.26,363.48 L 393.03,358.94 L 393.74,357.53 L 395.00,354.42 L 395.61,352.81 L 396.67,349.34 L 397.17,347.57 L 398.03,343.80 L 398.43,341.89 L 399.09,337.89 L 399.70,333.84 L 400.32,325.29 L 400.54,320.98 L 400.39,312.27 L 400.23,307.95 L 399.33,299.56 L 399.06,297.50 L 398.39,293.54 L 398.03,291.58 L 397.17,287.86 L 396.72,286.04 L 395.68,282.62 L 395.14,280.96 L 393.93,277.91 L 393.30,276.43 L 391.91,273.81 L 389.64,270.41 L 388.48,268.96 L 386.00,266.73 L 384.71,265.72 L 381.76,264.29 L 380.98,263.98 L 379.30,263.49 L 378.44,263.27 L 376.55,262.94 L 375.58,262.80 L 373.47,262.63 L 370.00,262.52 L 368.30,262.52 L 365.63,262.62 L 364.39,262.69 L 362.40,262.95 L 361.46,263.12 L 359.85,263.61 L 357.50,264.67 L 356.50,265.21 L 354.66,266.41 L 353.77,267.03 L 352.15,268.42 L 351.36,269.14 L 349.92,270.77 L 349.23,271.62 L 347.95,273.52 L 347.33,274.51 L 346.18,276.73 L 345.63,277.89 L 344.59,280.47 L 344.09,281.81 L 343.14,284.78 L 341.78,289.74 L 341.32,291.59 L 340.66,294.92 L 340.37,296.61 L 339.99,300.29 L 339.91,301.28 L 339.78,303.47 L 339.73,304.61 L 339.65,307.20 L 339.62,308.56 L 339.58,311.66 L 339.55,317.00 L 339.54,319.56 L 339.60,324.16 L 339.64,326.39 L 339.81,330.41 L 339.91,332.36 L 340.20,335.89 L 340.36,337.61 L 340.79,340.77 L 341.03,342.31 L 341.61,345.18 L 341.93,346.59 L 342.68,349.29 L 345.67,357.20 L 346.38,358.79 L 348.15,361.63 L 349.08,363.00 L 351.25,365.39 L 352.38,366.52 L 354.90,368.42 L 356.20,369.31 L 359.01,370.70 L 360.44,371.34 L 363.49,372.20 L 365.04,372.56 L 368.27,372.87 L 369.91,372.95 L 373.27,372.68 L 374.96,372.46 M 216.54,263.94 L 216.56,263.91 L 216.61,263.33 L 216.64,262.96 L 216.70,261.75 L 216.74,261.06 L 216.81,259.24 L 216.85,258.26 L 216.93,255.87 L 216.98,254.61 L 217.07,251.68 L 217.11,250.15 L 217.21,246.71 L 217.26,244.94 L 217.37,241.03 L 217.42,239.02 L 217.53,234.68 L 217.59,232.46 L 217.71,227.71 L 217.76,225.29 L 217.88,220.17 L 217.94,217.57 L 218.07,212.11 L 218.13,209.34 L 218.25,203.58 L 218.38,197.76 L 218.63,185.33 L 219.01,165.81 L 219.10,160.96 L 219.28,151.92 L 219.36,147.51 L 219.52,139.34 L 219.60,135.35 L 219.76,127.99 L 219.83,124.41 L 219.97,117.83 L 220.04,114.64 L 220.18,108.80 L 220.24,105.97 L 220.37,100.84 L 220.44,98.36 L 220.56,93.89 L 220.62,91.74 L 220.74,87.90 L 220.80,86.05 L 220.91,82.80 L 220.97,81.25 L 221.09,78.55 L 221.14,77.26 L 221.26,75.07 L 221.32,74.04 L 221.43,72.32 L 221.49,71.52 L 221.61,70.24 L 221.67,69.65 L 221.79,68.77 L 221.85,68.37 L 221.97,67.85 L 222.17,67.42 L 222.26,67.33 L 222.74,67.03 L 223.03,66.86 L 223.87,66.41 L 224.33,66.17 L 225.49,65.59 L 226.10,65.29 L 227.53,64.61 L 229.01,63.91 L 232.59,62.29 L 238.54,59.69 L 240.60,58.80 L 244.73,57.00 L 246.75,56.11 L 250.47,54.45 L 251.35,54.05 L 252.97,53.31 L 253.75,52.95 L 255.12,52.31 L 255.77,52.00 L 256.83,51.49 L 258.04,50.88 L 262.50,48.50 L 257.00,48.17 L 255.44,48.07 L 251.68,48.17 L 249.72,48.26 L 245.30,48.70 L 243.02,48.97 L 238.10,49.72 L 235.60,50.13 L 230.38,51.16 L 225.10,52.25 L 214.38,55.10 L 211.75,55.85 L 206.66,57.48 L 199.46,60.07 L 194.84,61.87 L 185.84,65.96 L 181.39,68.08 L 172.82,72.76 L 168.59,75.16 L 160.56,80.36 L 149.26,88.65 L 147.32,90.21 L 143.28,93.72 L 141.30,95.49 L 137.72,98.92 L 136.88,99.74 L 135.41,101.25 L 134.72,101.97 L 133.60,103.22 L 133.10,103.80 L 132.42,104.70 L 132.00,105.58 L 132.00,105.74 L 132.44,106.08 L 132.73,106.26 L 133.65,106.59 L 134.17,106.75 L 135.48,107.04 L 137.75,107.40 L 139.62,107.62 L 143.04,108.43 L 144.71,108.90 L 147.75,110.23 L 149.23,110.97 L 151.96,112.86 L 155.77,116.36 L 157.08,117.79 L 159.46,120.81 L 160.62,122.38 L 162.76,125.94 L 163.81,127.82 L 165.83,132.26 L 166.33,133.44 L 167.34,136.03 L 167.84,137.37 L 168.86,140.30 L 169.37,141.81 L 170.41,145.12 L 170.93,146.83 L 172.01,150.57 L 172.56,152.50 L 173.69,156.71 L 174.27,158.87 L 175.47,163.60 L 176.08,166.03 L 177.37,171.31 L 178.02,174.02 L 179.41,179.90 L 180.12,182.92 L 181.61,189.44 L 184.00,200.00 L 184.64,202.85 L 185.85,208.00 L 186.45,210.50 L 187.60,215.05 L 188.18,217.25 L 189.31,221.30 L 189.88,223.27 L 191.02,226.94 L 192.18,230.53 L 194.70,237.03 L 199.07,246.66 L 199.87,248.29 L 201.56,251.31 L 202.41,252.77 L 204.15,255.43 L 205.02,256.71 L 206.74,258.93 L 207.60,259.99 L 209.25,261.73 L 210.06,262.53 L 211.58,263.72 L 212.31,264.24 L 213.63,264.81 L 214.26,265.02 L 215.32,264.92 L 215.80,264.78 M 375.00,80.54 L 375.00,80.34 L 374.55,79.67 L 374.25,79.30 L 373.31,78.37 L 372.79,77.89 L 371.48,76.84 L 369.25,75.23 L 366.41,73.32 L 360.41,69.77 L 357.37,68.03 L 351.01,64.83 L 347.79,63.27 L 341.12,60.43 L 337.74,59.05 L 330.80,56.59 L 327.30,55.41 L 320.14,53.35 L 316.53,52.37 L 309.20,50.72 L 305.51,49.95 L 298.05,48.73 L 286.77,47.40 L 285.39,47.28 L 283.13,47.10 L 282.08,47.03 L 280.42,47.07 L 279.66,47.13 L 278.50,47.53 L 277.98,47.79 L 277.24,48.70 L 276.91,49.23 L 276.49,50.81 L 276.32,51.69 L 276.13,54.07 L 276.06,55.37 L 276.01,58.71 L 276.00,59.61 L 276.00,61.62 L 276.00,64.96 L 276.00,67.12 L 276.05,71.11 L 276.09,73.02 L 276.20,76.25 L 276.23,76.99 L 276.29,78.27 L 276.33,78.87 L 276.41,79.83 L 276.45,80.27 L 276.53,80.88 L 276.67,81.33 L 276.69,81.36 L 276.99,81.40 L 277.18,81.42 L 277.80,81.47 L 278.15,81.49 L 279.07,81.53 L 279.57,81.55 L 280.78,81.59 L 282.06,81.63 L 285.41,81.71 L 287.20,81.74 L 291.48,81.80 L 293.73,81.83 L 298.80,81.89 L 301.42,81.91 L 307.15,81.95 L 310.09,81.96 L 316.34,81.99 L 326.17,82.00 L 328.80,82.00 L 333.67,82.00 L 336.03,82.00 L 340.38,81.99 L 342.49,81.99 L 346.34,81.97 L 348.21,81.97 L 351.59,81.95 L 353.23,81.94 L 356.19,81.92 L 357.61,81.90 L 360.16,81.87 L 361.38,81.85 L 363.55,81.81 L 364.59,81.79 L 366.40,81.74 L 367.27,81.72 L 368.76,81.66 L 369.47,81.63 L 370.67,81.56 L 371.80,81.48 L 373.30,81.30 L 373.94,81.20 L 374.63,80.96 L 374.90,80.84 Z" fill="rgba(242,242,242,1)"/>
</g>
</svg>