<svg xmlns="http://www.w3.org/2000/svg" width="500" height="500" viewBox="0 0 500 500">
<g>
<path d="M 244.50,465.89 C169.75,456.93 105.47,413.19 72.46,348.81 C55.20,315.14 47.58,282.31 47.56,241.50 C47.54,203.64 54.42,173.63 70.59,141.04 C97.65,86.51 143.08,47.91 202.41,29.06 C237.68,17.85 283.11,15.68 320.00,23.46 C358.15,31.50 393.00,50.15 419.83,76.87 C429.30,86.31 440.51,100.37 439.65,101.75 C439.36,102.23 434.18,106.08 428.14,110.31 L 417.17,118.00 L 346.19,118.00 L 275.21,118.00 L 274.62,125.75 C274.30,130.01 273.79,150.15 273.49,170.50 C273.19,190.85 272.69,210.56 272.37,214.31 L 271.78,221.12 L 331.14,220.94 L 390.50,220.77 L 399.50,223.43 C404.45,224.89 411.20,227.37 414.50,228.93 C436.46,239.31 450.80,261.81 455.66,293.50 C457.59,306.09 456.93,338.80 454.53,349.50 C449.84,370.44 443.98,381.69 428.71,399.06 C424.57,403.76 421.03,408.71 420.84,410.06 C420.58,411.93 419.80,412.58 417.52,412.84 C415.80,413.03 412.82,414.76 410.52,416.88 C386.05,439.42 347.89,457.27 309.50,464.11 C295.77,466.56 258.58,467.58 244.50,465.89 M 291.79,437.94 C312.73,435.64 331.98,430.13 350.57,421.12 L 362.50,415.34 L 353.43,414.17 C347.86,413.45 329.29,413.00 305.30,413.00 L 266.24,413.00 L 243.95,422.50 C231.70,427.72 221.50,432.17 221.29,432.38 C220.59,433.08 234.35,436.00 245.00,437.41 C257.94,439.12 278.86,439.35 291.79,437.94 M 214.39,411.75 C215.46,378.18 217.12,275.78 216.61,275.27 C216.34,275.00 213.95,276.61 211.31,278.84 C204.85,284.28 194.51,289.54 187.36,291.03 C180.00,292.56 170.73,291.07 163.64,287.21 C156.30,283.21 147.81,273.30 142.61,262.65 C136.93,251.02 133.24,238.49 127.46,211.25 C121.85,184.74 119.69,175.88 116.31,165.50 C113.60,157.13 106.77,142.59 105.06,141.53 C103.79,140.75 95.38,157.48 90.57,170.36 C70.93,222.93 74.41,286.58 99.64,336.14 C118.07,372.35 147.64,401.56 183.56,419.06 C190.69,422.54 211.44,430.89 213.14,430.97 C213.49,430.99 214.06,422.34 214.39,411.75 M 295.00,376.47 C295.00,376.17 293.94,373.81 292.64,371.22 C281.98,349.92 279.05,313.33 285.66,284.00 C287.40,276.30 291.53,264.40 293.56,261.29 C296.16,257.28 295.50,257.00 283.52,257.00 C272.41,257.00 272.02,257.07 271.58,259.25 C271.33,260.49 270.87,276.57 270.56,295.00 C270.25,313.43 269.70,339.41 269.34,352.75 L 268.69,377.00 L 281.85,377.00 C289.08,377.00 295.00,376.76 295.00,376.47 M 378.57,371.53 C388.93,368.44 394.66,360.16 398.24,343.08 C400.85,330.59 401.07,307.52 398.68,294.32 C394.51,271.22 386.33,262.00 370.00,262.00 C354.73,262.00 346.67,270.17 341.40,291.00 C339.85,297.13 339.51,302.06 339.54,318.00 C339.58,339.31 341.11,348.35 346.41,358.83 C352.25,370.35 365.28,375.49 378.57,371.53 M 217.38,249.75 C217.71,240.81 218.43,204.93 218.99,170.00 C219.54,135.07 220.27,97.64 220.61,86.81 L 221.23,67.13 L 243.86,57.44 C256.31,52.12 266.73,47.53 267.00,47.24 C267.78,46.44 249.55,47.93 239.00,49.53 C200.05,55.45 160.99,74.99 134.78,101.67 L 129.06,107.50 L 135.28,107.54 C143.69,107.60 148.48,109.43 154.20,114.79 C165.30,125.16 170.38,138.97 181.48,188.85 C184.58,202.79 188.20,217.93 189.53,222.51 C192.87,234.04 200.27,250.53 204.78,256.48 C208.18,260.97 214.13,266.00 216.04,266.00 C216.45,266.00 217.06,258.69 217.38,249.75 M 378.97,82.05 C378.86,80.21 357.89,67.82 345.84,62.48 C326.72,54.00 305.49,48.63 286.03,47.36 L 276.09,46.71 L 275.80,64.44 C275.63,74.19 275.64,82.31 275.81,82.48 C276.38,83.04 379.00,82.61 378.97,82.05 Z" fill="rgba(0,0,0,1)"/>
</g>
</svg>